<svg xmlns="http://www.w3.org/2000/svg" version="1.1" xmlns:xlink="http://www.w3.org/1999/xlink" xmlns:svgjs="http://svgjs.dev/svgjs" width="1920" height="1080" preserveAspectRatio="none" viewBox="0 0 1920 1080"><g mask="url(&quot;#SvgjsMask2590&quot;)" fill="none"><rect width="1920" height="1080" x="0" y="0" fill="url(&quot;#SvgjsLinearGradient2591&quot;)"></rect><path d="M1920 0L1298.8 0L1920 236.97z" fill="rgba(255, 255, 255, .1)"></path><path d="M1298.8 0L1920 236.97L1920 391.25L912.99 0z" fill="rgba(255, 255, 255, .075)"></path><path d="M912.99 0L1920 391.25L1920 809.13L647.56 0z" fill="rgba(255, 255, 255, .05)"></path><path d="M647.56 0L1920 809.13L1920 854.51L287.35999999999996 0z" fill="rgba(255, 255, 255, .025)"></path><path d="M0 1080L525.04 1080L0 862.5699999999999z" fill="rgba(0, 0, 0, .1)"></path><path d="M0 862.5699999999999L525.04 1080L917.39 1080L0 841.2199999999999z" fill="rgba(0, 0, 0, .075)"></path><path d="M0 841.22L917.39 1080L928.5 1080L0 651.22z" fill="rgba(0, 0, 0, .05)"></path><path d="M0 651.22L928.5 1080L1635.6100000000001 1080L0 556.54z" fill="rgba(0, 0, 0, .025)"></path></g><defs><mask id="SvgjsMask2590"><rect width="1920" height="1080" fill="#ffffff"></rect></mask><linearGradient x1="0%" y1="50%" x2="100%" y2="50%" gradientUnits="userSpaceOnUse" id="SvgjsLinearGradient2591"><stop stop-color="rgba(0, 36, 74, 1)" offset="0"></stop><stop stop-color="rgba(65, 86, 222, 0.85)" offset="1"></stop></linearGradient></defs></svg>