<svg xmlns="http://www.w3.org/2000/svg" version="1.1" xmlns:xlink="http://www.w3.org/1999/xlink" xmlns:svgjs="http://svgjs.dev/svgjs" width="1920" height="1080" preserveAspectRatio="none" viewBox="0 0 1920 1080"><g mask="url(&quot;#SvgjsMask3753&quot;)" fill="none"><rect width="1920" height="1080" x="0" y="0" fill="url(&quot;#SvgjsLinearGradient3754&quot;)"></rect><path d="M270 122.73C164.1 83.56 88.01 184.64 0 144.64C-46.99 123.28 -47.09 25.23 0 0C87.91 -47.09 135 0 270 0C405 0 405 0 540 0C601.37 0 634.3 -41.43 662.73 0C726.94 93.57 755.2 149.37 725.29 270C693.83 396.87 634.05 383.74 540 495C519.93 518.74 497.05 517.63 497.05 540C497.05 562.1 511.3 583.95 540 583.95C667.77 583.95 675 561.97 810 540C810 540 810 540 810 540C945 426.17 939.56 417.68 1080 312.35C1119.56 282.68 1170 290.11 1170 270C1170 250.31 1117.28 263.16 1080 232.76C951.74 128.16 838.93 67.69 838.93 0C838.93 -48.69 959.46 0 1080 0C1215 0 1215 0 1350 0C1485 0 1485 0 1620 0C1745.58 0 1827.27 -64.08 1871.16 0C1919.74 70.92 1799.36 139.23 1804.93 270C1808.78 360.48 1832.6 442.5 1890 442.5C1963.85 442.5 2065.03 366.96 2067.43 270C2070.51 145.71 1875.47 74.31 1900.95 0C1921.76 -60.69 2096.58 -66.1 2160 0C2226.1 68.9 2160 135 2160 270C2160 405 2160 405 2160 540C2160 675 2160 675 2160 810C2160 945 2227.5 1012.5 2160 1080C2092.5 1147.5 2025 1080 1890 1080C1787.59 1080 1785.42 1090.47 1685.17 1080C1650.42 1076.37 1650.06 1051.79 1620 1051.79C1602.71 1051.79 1610.07 1077.95 1590.47 1080C1475.07 1092.06 1470.24 1080 1350 1080C1215 1080 1215 1080 1080 1080C945 1080 945 1080 810 1080C675 1080 675 1080 540 1080C466.88 1080 422.18 1127.38 393.75 1080C341.18 992.38 417.66 930.58 378 810C355.79 742.46 323.57 703.77 270 703.77C217.31 703.77 203.64 747.16 165.48 810C89.41 935.27 114.13 961.56 41.54 1080C31.39 1096.56 2.77 1098 0 1080C-18 963 0 945 0 810C0 675 0 675 0 540C0 499.87 -28.73 481.42 0 459.73C106.27 379.48 141.78 407.9 270 336.12C311.25 313.03 338.94 309.48 338.94 270C338.94 202.79 333.57 146.24 270 122.73" stroke="rgba(16, 127, 209, 1)" stroke-width="2"></path><path d="M1620 495C1525.11 495 1427.14 519.04 1427.14 540C1427.14 560.82 1524.73 578.57 1620 578.57C1679.85 578.57 1737.39 560.71 1737.39 540C1737.39 518.93 1680.24 495 1620 495" stroke="rgba(164, 37, 189, 0.58)" stroke-width="2"></path><path d="M67.5 0C67.5 6.21 25.25 24.11 0 24.11C-8.5 24.11 -8.88 3.17 0 0C24.87 -8.88 67.5 -5.85 67.5 0" stroke="rgba(16, 127, 209, 1)" stroke-width="2"></path><path d="M482.55 270C482.55 227.32 512.09 180 540 180C567.29 180 592.94 227.08 592.94 270C592.94 304.23 567.12 334.29 540 334.29C511.92 334.29 482.55 304.46 482.55 270" stroke="rgba(16, 127, 209, 1)" stroke-width="2"></path><path d="M1080 116.38C1008.21 76.46 959.46 33.84 959.46 0C959.46 -24.35 1019.73 0 1080 0C1215 0 1215 0 1350 0C1485 0 1485 0 1620 0C1667.1 0 1702.23 -34.91 1714.19 0C1748.47 100.09 1743.06 145.76 1712.47 270C1695.97 337.01 1676.68 382.5 1620 382.5C1531.18 382.5 1518.63 329.49 1421.47 270C1383.63 246.83 1390.24 235.27 1350 217.17C1219.51 158.46 1203.48 185.04 1080 116.38" stroke="rgba(164, 37, 189, 0.58)" stroke-width="2"></path><path d="M2160 210.51C2112.9 210.51 1992.16 64.84 1992.16 0C1992.16 -40.42 2122.77 -46.69 2160 0C2206.69 58.56 2196.82 210.51 2160 210.51" stroke="rgba(164, 37, 189, 0.58)" stroke-width="2"></path><path d="M145.38 540C145.38 509.59 211.74 473.88 270 473.88C310.87 473.88 343.64 508.91 343.64 540C343.64 568.52 309.78 593.11 270 593.11C210.65 593.11 145.38 569.2 145.38 540" stroke="rgba(16, 127, 209, 1)" stroke-width="2"></path><path d="M966.98 540C1022 490.68 1022.35 444.71 1080 444.71C1141.17 444.71 1139.47 496.59 1204.62 540C1274.47 586.55 1271.11 598.99 1350 624.63C1478.8 666.49 1485.97 679.59 1620 675C1755.97 670.34 1778.12 571.3 1890 606.12C1995 638.8 1965.5 714.32 2053.77 810C2100.5 860.65 2137 840.31 2160 898.77C2190.11 975.31 2212.92 1042.3 2160 1080C2085.71 1132.92 2028.26 1089.2 1905.58 1080C1893.26 1079.08 1901.52 1064.95 1890 1059.75C1758.73 1000.47 1743.37 944.87 1620 951.04C1540.87 955 1563.35 1042.58 1485 1080C1428.35 1107.06 1417.5 1080 1350 1080C1263.6 1080 1247.71 1112.54 1177.2 1080C1112.71 1050.23 1146.3 964.75 1080 955.38C962.7 938.79 945.56 993.95 810 1028.08C698.06 1056.26 697.98 1058.27 585 1080C562.98 1084.23 562.5 1080 540 1080C537.19 1080 534.88 1082.72 534.38 1080C510.13 947.72 488.36 939.35 490.5 810C491.17 769.82 502.33 755.46 540 740.93C662.08 693.83 690.08 743.17 810 686.74C903.57 642.71 887 611.69 966.98 540" stroke="rgba(16, 127, 209, 1)" stroke-width="2"></path><path d="M0 680C14.77 680 56.61 746.29 56.61 810C56.61 862.91 15.08 913.24 0 913.24C-13.22 913.24 0 861.62 0 810C0 745 -13.54 680 0 680" stroke="rgba(16, 127, 209, 1)" stroke-width="2"></path><path d="M1350 70.43C1218.37 70.43 1080 17.9 1080 0C1080 -17.32 1215 0 1350 0C1423.64 0 1497.27 -16.7 1497.27 0C1497.27 18.51 1427.01 70.43 1350 70.43" stroke="rgba(164, 37, 189, 0.58)" stroke-width="2"></path><path d="M2160 96.1C2138.5 96.1 2083.38 29.6 2083.38 0C2083.38 -18.45 2143.01 -21.32 2160 0C2181.32 26.73 2176.81 96.1 2160 96.1" stroke="rgba(16, 127, 209, 1)" stroke-width="2"></path><path d="M1123.2 810C1131.2 734.91 1233.46 734.42 1350 725.37C1481.86 715.13 1484.38 766.78 1620 771.43C1754.38 776.04 1766.91 729.19 1890 743.88C1928.46 748.47 1943.11 775.66 1943.11 810C1943.11 849.22 1932.3 885.72 1890 891C1770.75 905.87 1735.08 807.69 1620 850.3C1479.84 902.19 1503.52 974.52 1379.53 1080C1368.52 1089.37 1364.76 1080 1350 1080C1331.1 1080 1323.87 1093.89 1312.2 1080C1210.47 958.89 1112.3 912.23 1123.2 810" stroke="rgba(16, 127, 209, 1)" stroke-width="2"></path><path d="M2035.38 1080C2035.38 1055.54 2120.57 991.23 2160 991.23C2182.88 991.23 2185.92 1061.54 2160 1080C2123.61 1105.92 2035.38 1099.92 2035.38 1080" stroke="rgba(164, 37, 189, 0.58)" stroke-width="2"></path></g><defs><mask id="SvgjsMask3753"><rect width="1920" height="1080" fill="#ffffff"></rect></mask><linearGradient x1="10.94%" y1="-19.44%" x2="89.06%" y2="119.44%" gradientUnits="userSpaceOnUse" id="SvgjsLinearGradient3754"><stop stop-color="rgba(49, 93, 137, 1)" offset="0"></stop><stop stop-color="rgba(55, 41, 105, 1)" offset="1"></stop></linearGradient></defs></svg>