<svg xmlns="http://www.w3.org/2000/svg" version="1.1" xmlns:xlink="http://www.w3.org/1999/xlink" xmlns:svgjs="http://svgjs.dev/svgjs" width="1920" height="1080" preserveAspectRatio="none" viewBox="0 0 1920 1080"><g mask="url(&quot;#SvgjsMask5103&quot;)" fill="none"><rect width="1920" height="1080" x="0" y="0" fill="url(&quot;#SvgjsLinearGradient5104&quot;)"></rect><path d="M540 201.69C477.4 201.69 416.74 220.03 416.74 270C416.74 351.95 475.2 465.52 540 465.52C607.71 465.52 681.75 349.87 681.75 270C681.75 217.96 609.9 201.69 540 201.69" stroke="rgba(16, 127, 209, 1)" stroke-width="2"></path><path d="M1350 260.53C1340.81 260.53 1330.71 260.38 1330.71 270C1330.71 319.11 1342 378 1350 378C1357.93 378 1362.56 321.31 1362.56 270C1362.56 262.58 1356.73 260.53 1350 260.53" stroke="rgba(242, 17, 105, 0.58)" stroke-width="2"></path><path d="M2025 0C2108.45 53.1 2113.43 78.67 2160 171.82C2180.93 213.67 2160 220.91 2160 270C2160 405 2160 405 2160 540C2160 631.95 2200.13 723.91 2160 723.91C2100.99 723.91 2062.5 630.06 1961.72 540C1927.5 509.42 1929.04 482.63 1890 482.63C1834.34 482.63 1784.58 486.98 1772.31 540C1746.71 650.66 1772.93 684.43 1814.27 810C1831.77 863.16 1839.05 875.57 1890 897.46C2011.91 949.82 2066.18 895.07 2160 958.5C2201.18 986.34 2201.9 1061.15 2160 1080C2066.9 1121.9 2025 1080 1890 1080C1755 1080 1755 1080 1620 1080C1485 1080 1485 1080 1350 1080C1215 1080 1215 1080 1080 1080C966.97 1080 951.29 1107.26 853.95 1080C816.29 1069.46 839.04 1004.4 810 1004.4C769.81 1004.4 770.6 1064.57 715.5 1080C635.6 1102.37 627.75 1080 540 1080C405 1080 405 1080 270 1080C174.88 1080 101.51 1134.35 79.77 1080C47.51 999.35 186.4 916 162 810C146.51 742.69 38.96 798.31 0 733.38C-42.04 663.31 0 636.69 0 540C0 405 0 405 0 270C0 135 -67.5 67.5 0 0C67.5 -67.5 135 0 270 0C405 0 405 0 540 0C675 0 675 0 810 0C945 0 945 0 1080 0C1215 0 1215 0 1350 0C1485 0 1485 0 1620 0C1755 0 1755 0 1890 0C1957.5 0 1973.45 -32.81 2025 0" stroke="rgba(242, 17, 105, 0.58)" stroke-width="2"></path><path d="M1080 422.61C957.79 422.61 834.55 470.78 834.55 540C834.55 616.57 963.7 619.84 1080 714.19C1130.1 754.84 1113.39 777.36 1167.35 810C1248.39 859.02 1265.06 877.5 1350 877.5C1394.25 877.5 1425.73 854.14 1425.73 810C1425.73 700.97 1396.71 684.82 1350 571.15C1341.23 549.82 1335.29 551.28 1314.78 540C1200.29 477.01 1197.9 422.61 1080 422.61" stroke="rgba(242, 17, 105, 0.58)" stroke-width="2"></path><path d="M270 270C270 270 270 270 270 270C249.55 405 299.46 443.01 229.09 540C164.46 629.09 81.39 642.16 0 642.16C-33.15 642.16 0 591.08 0 540C0 405 0 405 0 270C0 135 -67.5 67.5 0 0C67.5 -67.5 135 0 270 0C405 0 405 0 540 0C661.83 0 783.66 -28.45 783.66 0C783.66 31.73 660.25 57.15 540 120.36C403.42 192.15 405 195.18 270 270" stroke="rgba(16, 127, 209, 1)" stroke-width="2"></path><path d="M1041.43 270C930.6 146.22 821.79 78.3 832.98 0C841.08 -56.7 956.49 0 1080 0C1215 0 1215 0 1350 0C1485 0 1485 0 1620 0C1700 0 1704.37 -16.98 1780 0C1839.37 13.33 1844.14 18.85 1890 60.61C1992.41 153.85 1987.41 162.01 2076.55 270C2122.41 325.55 2139.7 322.02 2160 387.69C2181.43 457.02 2160 463.85 2160 540C2160 583.05 2178.78 626.09 2160 626.09C2132.38 626.09 2115.53 580.8 2067.19 540C1980.53 466.88 1988.61 407.65 1890 398.25C1765.01 386.34 1719.36 531.77 1620 497.37C1534.13 467.64 1592.33 365.79 1519.53 270C1457.33 188.16 1440.85 142.11 1350 142.11C1225.9 142.11 1219.58 205.62 1089.64 270C1084.58 272.5 1085.41 275.87 1080 275.87C1061.3 275.87 1054.11 284.16 1041.43 270" stroke="rgba(242, 17, 105, 0.58)" stroke-width="2"></path><path d="M405 810C464.05 748.59 461.4 720.88 540 703.93C663.9 677.21 684.16 688.32 810 722.65C878.56 741.35 864.76 774.59 928.8 810C999.76 849.25 1002.61 846.09 1080 871.97C1213.21 916.52 1227.89 968.55 1350 950.87C1441.91 937.56 1448.99 895.09 1508.05 810C1583.99 700.6 1564.03 561.89 1620 561.89C1675.97 561.89 1660.41 695.89 1731.95 810C1795.41 911.22 1795.46 922.62 1890 992.54C1977.99 1057.62 2097 1057.24 2097 1080C2097 1100.97 1993.5 1080 1890 1080C1755 1080 1755 1080 1620 1080C1485 1080 1485 1080 1350 1080C1215 1080 1215 1080 1080 1080C1006.22 1080 983.37 1119.72 932.44 1080C848.37 1014.42 890.9 869.4 810 869.4C698.05 869.4 679.1 976.77 546.75 1080C544.1 1082.07 543.38 1080 540 1080C405 1080 405 1080 270 1080C251.59 1080 233.18 1092.62 233.18 1080C233.18 1044.98 242.82 1027.41 270 984.71C328.73 892.41 329.05 888.98 405 810" stroke="rgba(242, 17, 105, 0.58)" stroke-width="2"></path><path d="M540 39.04C487.09 39.04 432 10.06 432 0C432 -9.46 486 0 540 0C579.51 0 619.02 -9.23 619.02 0C619.02 10.29 580.6 39.04 540 39.04" stroke="rgba(242, 17, 105, 0.58)" stroke-width="2"></path><path d="M1080 115.71C1014.22 111.54 976.6 34.72 976.6 0C976.6 -23.13 1028.3 0 1080 0C1215 0 1215 0 1350 0C1398.22 0 1446.43 -5.83 1446.43 0C1446.43 6.01 1397.31 8.74 1350 23.68C1214.09 66.6 1200.92 123.38 1080 115.71" stroke="rgba(16, 127, 209, 1)" stroke-width="2"></path><path d="M1730.45 270C1730.45 240.32 1817.88 198.37 1890 198.37C1929.56 198.37 1953.82 238.04 1953.82 270C1953.82 295.8 1925.61 313.88 1890 313.88C1813.92 313.88 1730.45 298.08 1730.45 270" stroke="rgba(16, 127, 209, 1)" stroke-width="2"></path><path d="M0 424.29C6.21 424.29 24.55 488.4 24.55 540C24.55 551.73 8.72 550.95 0 550.95C-3.55 550.95 0 545.47 0 540C0 482.14 -6.07 424.29 0 424.29" stroke="rgba(16, 127, 209, 1)" stroke-width="2"></path><path d="M1590.37 810C1590.37 774.9 1605.18 744.32 1620 744.32C1634.82 744.32 1649.63 774.9 1649.63 810C1649.63 929.24 1634.82 1053 1620 1053C1605.18 1053 1590.37 929.24 1590.37 810" stroke="rgba(242, 17, 105, 0.58)" stroke-width="2"></path><path d="M1010.93 1080C1010.93 1049.15 1028.44 991.1 1080 982.62C1197.98 963.22 1215.75 999.41 1350 1024.24C1479 1048.1 1606.5 1065.9 1606.5 1080C1606.5 1093.78 1478.25 1080 1350 1080C1215 1080 1215 1080 1080 1080C1045.47 1080 1010.93 1097.84 1010.93 1080" stroke="rgba(16, 127, 209, 1)" stroke-width="2"></path></g><defs><mask id="SvgjsMask5103"><rect width="1920" height="1080" fill="#ffffff"></rect></mask><linearGradient x1="10.94%" y1="-19.44%" x2="89.06%" y2="119.44%" gradientUnits="userSpaceOnUse" id="SvgjsLinearGradient5104"><stop stop-color="rgba(94, 22, 90, 1)" offset="0"></stop><stop stop-color="rgba(55, 41, 105, 1)" offset="1"></stop></linearGradient></defs></svg>