<?xml version="1.0" encoding="iso-8859-1"?>
<!-- Uploaded to: SVG Repo, www.svgrepo.com, Generator: SVG Repo Mixer Tools -->
<svg fill="#fff" height="800px" width="800px" version="1.1" id="Layer_1" xmlns="http://www.w3.org/2000/svg" xmlns:xlink="http://www.w3.org/1999/xlink" 
	 viewBox="0 0 512 512" xml:space="preserve">
<g>
	<g>
		<g>
			<path d="M350.305,237.268h22.845c-8.036-50.443-47.978-90.384-98.423-98.419v22.843c0,10.345-8.387,18.732-18.732,18.732
				s-18.732-8.387-18.732-18.732v-22.841c-50.441,8.037-90.379,47.977-98.415,98.418h22.838c10.345,0,18.732,8.387,18.732,18.732
				s-8.387,18.732-18.732,18.732h-22.838c8.036,50.441,47.974,90.38,98.415,98.418v-22.841c0-10.345,8.387-18.732,18.732-18.732
				s18.732,8.387,18.732,18.732v22.843c50.443-8.035,90.387-47.976,98.423-98.419h-22.845c-10.345,0-18.732-8.387-18.732-18.732
				C331.574,245.655,339.959,237.268,350.305,237.268z"/>
			<path d="M256,0C114.842,0,0,114.84,0,256s114.842,256,256,256s256-114.84,256-256S397.158,0,256,0z M436.42,274.732h-25.45
				c-8.547,71.131-65.111,127.694-136.242,136.238v25.453c0,10.345-8.387,18.732-18.732,18.732s-18.732-8.387-18.732-18.732v-25.454
				c-71.127-8.547-127.689-65.109-136.234-136.237H75.574c-10.345,0-18.732-8.387-18.732-18.732s8.387-18.732,18.732-18.732h25.456
				c8.545-71.128,65.108-127.69,136.234-136.237V75.577c0-10.345,8.387-18.732,18.732-18.732s18.732,8.387,18.732,18.732v25.453
				c71.131,8.544,127.695,65.108,136.242,136.238h25.45c10.345,0,18.732,8.387,18.732,18.732S446.765,274.732,436.42,274.732z"/>
		</g>
	</g>
</g>
</svg>