<svg width="300" height="512" xmlns="http://www.w3.org/2000/svg" enable-background="new 0 0 512 512" version="1.1" fill="#525252">
 <g>
  <title>Layer 1</title>
  <g stroke="null" id="svg_1">
   <path stroke="null" fill="#000000" id="svg_2" d="m229.39944,251.79127l-16.82725,-14.24049c-16.66098,-14.09635 -38.87561,-21.85078 -62.58674,-21.85078s-45.92577,7.75443 -62.58674,21.85078l-16.82725,14.24049c-3.75787,3.54571 -1.42998,7.32203 0,8.41746l16.82725,14.24049c16.66098,14.09635 38.87561,21.85078 62.58674,21.85078s45.92577,-7.75443 62.58674,-21.85078l16.82725,-14.24049c1.33022,-1.09542 3.89089,-4.72761 0,-8.41746zm-79.41399,24.3299c-12.80334,0 -23.2123,-9.02282 -23.2123,-20.12117c0,-11.09835 10.40895,-20.12117 23.2123,-20.12117c12.80334,0 23.2123,9.02282 23.2123,20.12117c0,11.09835 -10.40895,20.12117 -23.2123,20.12117zm-64.94788,-20.12117l11.87219,-10.03176c8.97897,-7.6103 19.88676,-13.02975 31.82546,-15.9701c-9.37803,5.79421 -15.49704,15.27826 -15.49704,25.97303c0,10.69477 6.119,20.20765 15.49704,25.97303c-11.93871,-2.94034 -22.84649,-8.3598 -31.82546,-15.94127l-11.87219,-10.00293zm118.05681,10.03176c-8.97897,7.58147 -19.88676,13.00093 -31.82546,15.94127c9.37803,-5.79421 15.49704,-15.27826 15.49704,-25.97303c0,-10.72361 -6.119,-20.20765 -15.49704,-25.97303c11.93871,2.94034 22.84649,8.3598 31.82546,15.9701l11.83894,10.03176l-11.83894,10.00293z"/>
  </g>
 </g>

</svg>