<svg xmlns="http://www.w3.org/2000/svg" version="1.1" xmlns:xlink="http://www.w3.org/1999/xlink" xmlns:svgjs="http://svgjs.dev/svgjs" width="1920" height="1080" preserveAspectRatio="none" viewBox="0 0 1920 1080"><g mask="url(&quot;#SvgjsMask1610&quot;)" fill="none"><rect width="1920" height="1080" x="0" y="0" fill="url(&quot;#SvgjsLinearGradient1611&quot;)"></rect><path d="M1920 0L1036.69 0L1920 107.13z" fill="rgba(255, 255, 255, .1)"></path><path d="M1036.69 0L1920 107.13L1920 215.35L606.5 0z" fill="rgba(255, 255, 255, .075)"></path><path d="M606.5 0L1920 215.35L1920 381.73L583.94 0z" fill="rgba(255, 255, 255, .05)"></path><path d="M583.94 0L1920 381.73L1920 635.8L310.80000000000007 0z" fill="rgba(255, 255, 255, .025)"></path><path d="M0 1080L397.54 1080L0 683.79z" fill="rgba(0, 0, 0, .1)"></path><path d="M0 683.79L397.54 1080L1016.24 1080L0 644.0899999999999z" fill="rgba(0, 0, 0, .075)"></path><path d="M0 644.09L1016.24 1080L1337.62 1080L0 568.46z" fill="rgba(0, 0, 0, .05)"></path><path d="M0 568.46L1337.62 1080L1373.11 1080L0 504.90000000000003z" fill="rgba(0, 0, 0, .025)"></path></g><defs><mask id="SvgjsMask1610"><rect width="1920" height="1080" fill="#ffffff"></rect></mask><linearGradient x1="10.94%" y1="119.44%" x2="89.06%" y2="-19.44%" gradientUnits="userSpaceOnUse" id="SvgjsLinearGradient1611"><stop stop-color="#0e2a47" offset="0"></stop><stop stop-color="rgba(158, 0, 52, 0.85)" offset="1"></stop></linearGradient></defs></svg>